<svg xmlns="http://www.w3.org/2000/svg" viewBox="0 0 847.59 176.81"><defs><style>.cls-1{opacity:0.67;}.cls-2{fill:#2e2e2e;}.cls-3{fill:#fff;}</style></defs><title>Artboard 6</title><g id="Title"><g class="cls-1"><path class="cls-2" d="M212.85,100c-17.72,0-36.43-13.35-36.43-36.32,0-22.54,13.78-36.44,37.19-36.44,13.9,0,32.06,4.71,32.06,19,0,5.91-2,11.38-8.75,11.38-9.52,0-9.52-14.88-23.41-14.88-7.12,0-11.16,4.05-11.16,12.25,0,12.58,7.22,25.06,20.78,25.06a19.93,19.93,0,0,0,11.27-3.5c1.64-1.1,4.27-3.4,6.35-3.4,2.84,0,4.27,3.18,4.27,5.69C245,91.15,228.82,100,212.85,100Z"/><path class="cls-2" d="M276.53,79.33c0,8.86,8.1,7.77,8.1,14.55,0,3.61-3.4,5.69-6.9,5.69-4,0-8.75-.33-12.9-.33s-9.19.33-13.35.33c-3.29,0-6.79-2.08-6.79-5.69,0-6.78,8.1-5.69,8.1-14.55V47.17c0-9-7.44-7.11-7.44-13.24,0-4.71,4.05-5.91,8.1-5.91,2.19,0,6.89.55,11.05.55,9.4,0,18.59-.55,28.11-.55,8.65,0,20,7,20,17.07,0,7.87-2.4,12.91-9.29,17.28,2.4,1.21,9.4,5.37,11.15,11.82,1,3.72,1.21,10.28,3.72,13.57,1.75,2.4,5.58,2.18,5.58,5.79,0,6.79-9.3,7.22-14.22,7.22-29.21,0-16.19-30.3-29-30.3-3.17,0-4.05,3.5-4.05,5.36Zm.55-24.4A2.87,2.87,0,0,0,280.14,58c2.41,0,6.13-1.75,6.13-8.86s-3.94-9.08-6.89-9.08c-.77,0-2.3.65-2.3,2.07Z"/><path class="cls-2" d="M386.27,79.33c0,8.75,8,7.77,8,14.55,0,4.93-7.55,5.8-12.47,5.8-14.33,0-13.24-6.89-16.85-6.89-4.59,0-7.22,6.89-23.74,6.89-12.25,0-19.69-8.64-19.69-21,0-17.73,14.11-21.34,30.74-22.21,5.36-.22,8.64-1.86,8.64-7.77,0-4.6-2-9.19-7.32-9.19-10.07,0-11.49,15.64-20.68,15.64-6.57,0-7.55-4.37-7.55-10.06,0-15,19.36-17.94,32.49-17.94,23.52,0,28.45,11.26,28.45,32.05Zm-24.84-4.7c0-5.36-1.75-8.32-5.91-8.32s-7.33,3.07-7.33,8.32c0,5.47,3,10.06,7.33,10.06S361.43,80.21,361.43,74.63Z"/><path class="cls-2" d="M405.2,47.17c0-9-7.44-7.11-7.44-13.24,0-4.71,4.05-5.91,8.1-5.91,2.08,0,6.78.55,11.38.55,4.15,0,8.86-.55,11.05-.55,3.94,0,8.09,1.2,8.09,5.91,0,6.13-7.44,4.27-7.44,13.24V79.33c0,8.86,8.1,7.77,8.1,14.55,0,3.61-3.39,5.69-6.89,5.69-4,0-8.76-.33-12.91-.33s-9.2.33-13.35.33c-3.28,0-6.78-2.08-6.78-5.69,0-6.78,8.09-5.69,8.09-14.55Z"/><path class="cls-2" d="M475,100c-21.23,0-40.37-11.38-40.37-37.85,0-20.79,14.55-34.91,38.51-34.91,13.24,0,31.62,2.3,31.62,18.82,0,5.8-2,10.29-8.65,10.29-9.63,0-9.84-13.57-24.07-13.57-5.8,0-11.48,4.05-11.48,13.79,0,12.69,4.92,27.78,16.63,27.78,5.36,0,6.78-2.18,6.78-4.37,0-5.58-8.21-3.94-8.21-10.5,0-4.38,4.16-5.58,10-5.58,2.62,0,5.14.21,8.64.21,2.52,0,5-.43,9.74-.43s8.75.87,8.75,5.69c0,6.23-3.61,5-6.78,8.53-2.85,3.06-1.86,5.8-5.69,10.94C494.48,97,485.51,100,475,100Z"/><path class="cls-2" d="M546.67,100c-17.17,0-32.27-3.94-32.27-22.43,0-3.17,1.64-6.34,5.47-6.34,4.16,0,8.53,8.31,11.38,10.39a21.92,21.92,0,0,0,12.36,3.94c4,0,5.58-1.86,5.58-3.83,0-8.64-33.92-7.22-33.92-33,0-12.58,12-21.88,30.53-21.88,14.66,0,28.66,2.4,28.66,16.19,0,4.05-2.3,7.44-6.45,7.44-8.1,0-10-9.41-19.92-9.41-2.84,0-5.25,1.09-5.25,3.17,0,6.35,14,5.8,26.26,13.46,5.91,3.72,8.43,8.1,8.43,14.22C577.53,88.85,562.32,100,546.67,100Z"/><path class="cls-2" d="M583.55,47.17c0-9-7.44-7.11-7.44-13.24,0-4.71,4-5.91,8.09-5.91,2.08,0,6.79.55,11.38.55,4.16,0,8.86-.55,11-.55,3.94,0,8.1,1.2,8.1,5.91,0,6.13-7.44,4.27-7.44,13.24V79.33c0,5.69,2.73,7.33,8.2,7.33,13.9,0,11.16-12.47,18-12.47,5,0,6,4.92,6,9,0,5.91-3,17.61-10.17,17.61-4.92,0-9.3-1.53-26.15-1.53-6.78,0-13.89.33-20.89.33-3.29,0-6.79-2.08-6.79-5.69,0-6.78,8.1-5.69,8.1-14.55Z"/><path class="cls-2" d="M648.87,47.17c0-9-7.44-7.11-7.44-13.24,0-4.71,4.05-5.91,8.09-5.91,2.08,0,6.79.55,11.38.55,4.16,0,8.86-.55,11.05-.55,3.94,0,8.1,1.2,8.1,5.91,0,6.13-7.44,4.27-7.44,13.24V79.33c0,8.86,8.09,7.77,8.09,14.55,0,3.61-3.39,5.69-6.89,5.69-4,0-8.75-.33-12.91-.33s-9.19.33-13.34.33c-3.29,0-6.79-2.08-6.79-5.69,0-6.78,8.1-5.69,8.1-14.55Z"/><path class="cls-2" d="M711.23,100C694.05,100,679,96.07,679,77.58c0-3.17,1.64-6.34,5.47-6.34,4.15,0,8.53,8.31,11.37,10.39a22,22,0,0,0,12.37,3.94c4.05,0,5.58-1.86,5.58-3.83,0-8.64-33.92-7.22-33.92-33,0-12.58,12-21.88,30.53-21.88C725,26.82,739,29.22,739,43c0,4.05-2.3,7.44-6.45,7.44-8.1,0-10-9.41-19.92-9.41-2.84,0-5.25,1.09-5.25,3.17,0,6.35,14,5.8,26.26,13.46,5.91,3.72,8.42,8.1,8.42,14.22C742.08,88.85,726.88,100,711.23,100Z"/><path class="cls-2" d="M791.21,79.33c0,8.86,8,7.77,8,14.55,0,3.61-3.39,5.69-6.68,5.69-4,0-9.3-.33-13.45-.33s-9.19.33-13.24.33c-3.28,0-6.67-2.08-6.67-5.69,0-6.78,8-5.69,8-14.55V56.9c0-8.86-.44-13-3.17-13-6.45,0-7.44,11.15-15.1,11.15-4.81,0-6.89-4.48-6.89-8.64,0-6.56,5.58-18.82,13.35-18.82s13.34,1.32,23.3,1.32,16.74-1.32,24.29-1.32,13.34,12.26,13.34,18.82c0,4.16-2.29,8.64-6.78,8.64-7.66,0-8.75-11.15-15.21-11.15-2.84,0-3.06,4.15-3.06,13Z"/></g><path class="cls-3" d="M210.55,95.4c-17.73,0-36.43-13.34-36.43-36.32,0-22.54,13.78-36.43,37.19-36.43,13.9,0,32.06,4.7,32.06,19,0,5.9-2,11.37-8.75,11.37-9.52,0-9.52-14.87-23.42-14.87-7.11,0-11.15,4-11.15,12.25,0,12.58,7.22,25,20.78,25A19.85,19.85,0,0,0,232.1,72c1.64-1.09,4.27-3.39,6.35-3.39,2.84,0,4.26,3.17,4.26,5.69C242.71,86.54,226.52,95.4,210.55,95.4Z"/><path class="cls-3" d="M274.23,74.73c0,8.86,8.09,7.76,8.09,14.55,0,3.61-3.39,5.69-6.89,5.69-4.05,0-8.75-.33-12.91-.33s-9.19.33-13.34.33c-3.29,0-6.79-2.08-6.79-5.69,0-6.79,8.1-5.69,8.1-14.55V42.56c0-9-7.44-7.11-7.44-13.24,0-4.7,4-5.9,8.09-5.9,2.19,0,6.9.54,11.05.54,9.41,0,18.6-.54,28.12-.54,8.64,0,20,7,20,17.06,0,7.88-2.41,12.91-9.3,17.29,2.41,1.2,9.41,5.36,11.16,11.81,1,3.72,1.21,10.29,3.72,13.57,1.75,2.41,5.58,2.19,5.58,5.8,0,6.78-9.3,7.22-14.22,7.22-29.21,0-16.19-30.31-29-30.31-3.18,0-4,3.51-4,5.37Zm.54-24.4a2.87,2.87,0,0,0,3.07,3.06c2.41,0,6.12-1.75,6.12-8.86s-3.93-9.08-6.89-9.08c-.76,0-2.3.66-2.3,2.08Z"/><path class="cls-3" d="M384,74.73c0,8.75,8,7.76,8,14.55,0,4.92-7.55,5.8-12.47,5.8-14.33,0-13.24-6.9-16.85-6.9-4.59,0-7.22,6.9-23.74,6.9-12.25,0-19.69-8.65-19.69-21,0-17.72,14.11-21.33,30.74-22.21,5.36-.22,8.64-1.86,8.64-7.77,0-4.59-2-9.19-7.33-9.19-10.06,0-11.48,15.65-20.68,15.65-6.56,0-7.54-4.38-7.54-10.07,0-15,19.36-17.94,32.49-17.94C379,22.54,384,33.81,384,54.6ZM359.13,70c0-5.36-1.75-8.31-5.91-8.31s-7.33,3.06-7.33,8.31c0,5.47,3,10.07,7.33,10.07S359.13,75.6,359.13,70Z"/><path class="cls-3" d="M402.9,42.56c0-9-7.44-7.11-7.44-13.24,0-4.7,4.05-5.9,8.09-5.9,2.08,0,6.79.54,11.38.54,4.16,0,8.87-.54,11.05-.54,3.94,0,8.1,1.2,8.1,5.9,0,6.13-7.44,4.27-7.44,13.24V74.73c0,8.86,8.09,7.76,8.09,14.55,0,3.61-3.39,5.69-6.89,5.69-4,0-8.75-.33-12.91-.33s-9.19.33-13.34.33c-3.29,0-6.79-2.08-6.79-5.69,0-6.79,8.1-5.69,8.1-14.55Z"/><path class="cls-3" d="M472.7,95.4c-21.22,0-40.37-11.37-40.37-37.85,0-20.79,14.56-34.9,38.51-34.9,13.24,0,31.62,2.3,31.62,18.82,0,5.8-2,10.28-8.64,10.28-9.63,0-9.85-13.56-24.07-13.56-5.8,0-11.49,4-11.49,13.78,0,12.69,4.93,27.79,16.63,27.79,5.36,0,6.79-2.19,6.79-4.38,0-5.58-8.21-3.94-8.21-10.5,0-4.38,4.16-5.58,10-5.58,2.62,0,5.14.22,8.64.22,2.52,0,5-.44,9.74-.44s8.75.88,8.75,5.69c0,6.24-3.61,5-6.78,8.53-2.85,3.07-1.86,5.8-5.69,10.94C492.18,92.34,483.21,95.4,472.7,95.4Z"/><path class="cls-3" d="M544.37,95.4c-17.18,0-32.27-3.93-32.27-22.42,0-3.18,1.64-6.35,5.47-6.35,4.15,0,8.53,8.32,11.37,10.39A21.85,21.85,0,0,0,541.31,81c4.05,0,5.58-1.86,5.58-3.83,0-8.64-33.92-7.22-33.92-33,0-12.58,12-21.88,30.53-21.88,14.65,0,28.66,2.41,28.66,16.19,0,4.05-2.3,7.44-6.46,7.44-8.09,0-10-9.41-19.91-9.41-2.84,0-5.25,1.1-5.25,3.18,0,6.34,14,5.8,26.26,13.45,5.91,3.72,8.42,8.1,8.42,14.23C575.22,84.24,560,95.4,544.37,95.4Z"/><path class="cls-3" d="M581.24,42.56c0-9-7.43-7.11-7.43-13.24,0-4.7,4-5.9,8.09-5.9,2.08,0,6.78.54,11.38.54,4.16,0,8.86-.54,11.05-.54,3.94,0,8.09,1.2,8.09,5.9,0,6.13-7.43,4.27-7.43,13.24V74.73c0,5.69,2.73,7.33,8.2,7.33,13.89,0,11.16-12.48,17.94-12.48,5,0,6,4.93,6,9,0,5.9-2.95,17.61-10.17,17.61-4.93,0-9.3-1.53-26.15-1.53-6.78,0-13.89.33-20.9.33-3.28,0-6.78-2.08-6.78-5.69,0-6.79,8.09-5.69,8.09-14.55Z"/><path class="cls-3" d="M646.56,42.56c0-9-7.43-7.11-7.43-13.24,0-4.7,4-5.9,8.09-5.9,2.08,0,6.78.54,11.38.54,4.16,0,8.86-.54,11-.54,3.94,0,8.09,1.2,8.09,5.9,0,6.13-7.43,4.27-7.43,13.24V74.73c0,8.86,8.09,7.76,8.09,14.55,0,3.61-3.39,5.69-6.89,5.69-4,0-8.75-.33-12.91-.33s-9.19.33-13.35.33c-3.28,0-6.78-2.08-6.78-5.69,0-6.79,8.09-5.69,8.09-14.55Z"/><path class="cls-3" d="M708.93,95.4c-17.18,0-32.28-3.93-32.28-22.42,0-3.18,1.65-6.35,5.47-6.35,4.16,0,8.54,8.32,11.38,10.39A21.85,21.85,0,0,0,705.86,81c4,0,5.59-1.86,5.59-3.83,0-8.64-33.92-7.22-33.92-33,0-12.58,12-21.88,30.52-21.88,14.66,0,28.67,2.41,28.67,16.19,0,4.05-2.3,7.44-6.46,7.44-8.09,0-10-9.41-19.91-9.41-2.84,0-5.25,1.1-5.25,3.18,0,6.34,14,5.8,26.26,13.45,5.9,3.72,8.42,8.1,8.42,14.23C739.78,84.24,724.57,95.4,708.93,95.4Z"/><path class="cls-3" d="M788.91,74.73c0,8.86,8,7.76,8,14.55,0,3.61-3.39,5.69-6.68,5.69-4.05,0-9.3-.33-13.46-.33s-9.18.33-13.23.33c-3.29,0-6.68-2.08-6.68-5.69,0-6.79,8-5.69,8-14.55V52.3c0-8.86-.44-13-3.17-13-6.46,0-7.44,11.16-15.1,11.16-4.81,0-6.89-4.49-6.89-8.64C739.68,35.23,745.26,23,753,23s13.35,1.31,23.31,1.31S793.07,23,800.61,23,814,35.23,814,41.8c0,4.15-2.3,8.64-6.78,8.64-7.66,0-8.75-11.16-15.21-11.16-2.84,0-3.06,4.16-3.06,13Z"/><path class="cls-3" d="M254.52,160.64h-1.15L189.82,114.9v44.32h-9.13V98.06h1.15l63.47,45.82V99.47h9.21Z"/><path class="cls-3" d="M269.33,159.22V99.47h30.14v7.63H277.66v15.42h21.81v7.27H277.66v21.8h21.81v7.63Z"/><path class="cls-3" d="M350.88,160.19h-5.4L334,123.05l-11.43,37.14H317.2L306.83,99.47h8.42l6.65,39,11.61-37h1.06l11.7,37,6.3-39h8.6Z"/><path class="cls-3" d="M413.74,159.22H400.8l24.55-24.65-33-35.1h12.86L432,128l28.63-28.55h13Z"/><path class="cls-3" d="M492.81,160.81c-15.07,0-19-18-19-31.46s4.17-31.47,19-31.47c15.07,0,19,17.73,19,31.47C511.78,142.55,507.61,160.81,492.81,160.81Zm0-55.31c-9,0-10.46,13.74-10.46,23.85,0,10.28,1.59,23.84,10.46,23.84,9,0,10.46-13.83,10.46-23.84C503.27,118.44,501.67,105.5,492.81,105.5Z"/><path class="cls-3" d="M549.45,159.22l-13.56-25.35h-4.61v25.35H523V99.47h16.57c10.64,0,18.09,6.12,18.09,16.76,0,8.6-6,14.53-13.48,16l15,26.95ZM538.37,107h-7.09v19.68h4.52c7.53,0,13.3-2.84,13.3-10.46C549.1,110.29,544.58,107,538.37,107Z"/><path class="cls-3" d="M569.22,159.22V99.47h8.33v59.75Zm26.15,0-16-29.7v-.26l16.14-29.79h9.57L588,129.26l17.29,30Z"/><path class="cls-3" d="M676,160.81c-21.1,0-41.22-9-41.22-31.46,0-24,23-31.47,41.22-31.47,12,0,22.6,1.77,32.44,6.38l-2.22,7.8a71.93,71.93,0,0,0-29.42-6.2c-18.35,0-32.36,7.71-32.36,23.57s14.18,23.41,32.27,23.49c11.7,0,21-2.21,29.6-6.2l2.22,7.71C699.62,158.51,689.87,160.81,676,160.81Z"/><path class="cls-3" d="M720.1,159.22V99.47h8.33v59.75Z"/><path class="cls-3" d="M759.1,107.1v52.12h-8.33V107.1H737.38V99.47h35.1v7.63Z"/><path class="cls-3" d="M789.5,159.22h-9.21l9.48-22.61L775.59,99.47h9l9.66,26.06,10.37-26.06h9Z"/><rect class="cls-3" x="24.53" y="23.41" width="148.71" height="136.32"/></g></svg>